<svg id="visual" viewBox="0 0 960 540" width="960" height="540" xmlns="http://www.w3.org/2000/svg" xmlns:xlink="http://www.w3.org/1999/xlink" version="1.1"><rect x="0" y="0" width="960" height="540" fill="#ffffff"></rect><path d="M327 540L356.7 522C386.3 504 445.7 468 517.8 432C590 396 675 360 733.7 324C792.3 288 824.7 252 801.8 216C779 180 701 144 658.7 108C616.3 72 609.7 36 606.3 18L603 0L960 0L960 18C960 36 960 72 960 108C960 144 960 180 960 216C960 252 960 288 960 324C960 360 960 396 960 432C960 468 960 504 960 522L960 540Z" fill="#0066FF" stroke-linecap="round" stroke-linejoin="miter"></path></svg>